<svg width="447" height="224" viewBox="0 0 447 224" fill="none" xmlns="http://www.w3.org/2000/svg">
<g clip-path="url(#clip0_185_96)">
<path d="M147.206 224C133.718 224 120.25 223.759 106.802 223.276C87.5876 222.586 67.7184 221.873 49.2507 211.634C36.3318 204.472 24.8901 192.981 16.1629 178.403C10.3297 168.522 6.05261 157.802 3.48175 146.621C-1.31387 126.263 -1.15053 105.051 3.95806 84.7698C5.7483 77.8161 8.21627 71.0546 11.3266 64.5824C24.7943 36.7032 49.3584 17.9887 78.7207 13.2377C78.9632 13.2063 79.2084 13.2011 79.452 13.2221C79.5841 13.2292 79.7157 13.2368 79.8499 13.2312L80.0226 13.1763C80.4655 13.0224 80.9204 12.9057 81.3826 12.8274C126.667 6.0882 174.539 19.7239 219.82 52.2593C254.832 77.419 301.231 90.9671 361.671 93.6778L362.529 93.7227C379.355 94.6889 395.629 101.623 409.596 113.776C423.382 125.772 433.733 141.776 439.53 160.059C440.243 162.288 440.896 164.609 441.472 166.955C442.008 169.136 441.97 171.419 441.362 173.581C440.754 175.743 439.596 177.711 438.002 179.293V179.297L437.852 179.452C437.489 179.812 437.108 180.157 436.718 180.479L436.26 180.857C432.397 184.037 429.347 186.55 425.696 188.501C423.26 189.794 420.671 190.771 417.988 191.41C403.26 195 388.303 198.328 373.533 201.302C344.848 207.084 315.408 211.853 286.03 215.478C239.973 221.155 193.611 224.001 147.206 224ZM79.1086 14.2095C79.0184 14.2087 78.9283 14.2148 78.839 14.2278C49.7512 18.9344 25.4196 37.4652 12.0854 65.0684C9.00583 71.4764 6.56228 78.1709 4.78984 85.0558C-0.272193 105.158 -0.433506 126.18 4.31947 146.358C6.86515 157.432 11.1008 168.049 16.8776 177.836C25.5194 192.271 36.8441 203.647 49.6276 210.733C67.9295 220.88 87.7051 221.59 106.83 222.276C166.644 224.413 226.534 221.807 285.937 214.484C315.297 210.862 344.718 206.096 373.383 200.318C388.143 197.345 403.09 194.02 417.808 190.432C420.426 189.81 422.954 188.856 425.33 187.595C428.908 185.683 431.929 183.194 435.755 180.044L436.213 179.667C436.548 179.39 436.877 179.094 437.192 178.787L437.282 178.692C440.426 175.525 441.648 171.346 440.636 167.227V167.227C440.067 164.905 439.42 162.609 438.715 160.403C426.873 123.054 396.24 96.6588 362.488 94.7211L361.634 94.6762C334.026 93.4377 309.867 90.0072 287.779 84.1877C261.412 77.2409 238.392 66.7836 219.36 53.1069C174.252 20.6962 126.58 7.11123 81.4933 13.8184C81.0721 13.8911 80.6577 13.9985 80.2543 14.1395L79.9429 14.2266C79.766 14.2345 79.5888 14.2324 79.4121 14.2203C79.3081 14.2149 79.2072 14.2095 79.1086 14.2095Z" fill="#333333"/>
<path d="M139.625 72.9819C138.376 71.7843 137.099 65.1061 135.505 64.4281C136.697 67.0607 135.831 67.7577 135.825 70.647C135.84 72.2876 135.648 73.9236 135.255 75.5163H108.25V54.4487C108.25 52.5557 108.623 50.6813 109.348 48.9324C110.072 47.1835 111.134 45.5944 112.473 44.2558C113.812 42.9173 115.402 41.8555 117.151 41.1311C118.901 40.4067 120.776 40.0339 122.67 40.034C123.393 40.0481 124.111 40.1532 124.807 40.3468C127.128 40.9732 129.244 42.1988 130.941 43.9006C132.639 45.6024 133.859 47.7206 134.48 50.0426C136.538 57.5647 139.813 70.0857 139.625 72.9819Z" fill="#2F2E41"/>
<path d="M109.834 98.8991L109.847 82.4781L100.191 83.3406L103.599 93.6973L102.004 119.729C101.231 119.903 100.524 120.297 99.9714 120.865C99.4184 121.433 99.0427 122.15 98.89 122.927C98.7373 123.705 98.8142 124.51 99.1114 125.245C99.4086 125.98 99.9133 126.612 100.564 127.065C101.214 127.518 101.983 127.772 102.775 127.796C103.567 127.82 104.35 127.613 105.027 127.2C105.703 126.787 106.245 126.187 106.586 125.471C106.928 124.756 107.053 123.957 106.948 123.171L109.834 98.8991Z" fill="#FFB6B6"/>
<path d="M128.837 216.244L132.738 216.243L134.594 201.202H128.836L128.837 216.244Z" fill="#FFB6B6"/>
<path d="M127.516 214.32L133.683 213.952V216.593L139.546 220.641C139.835 220.841 140.053 221.128 140.168 221.461C140.283 221.793 140.288 222.154 140.184 222.49C140.079 222.825 139.869 223.119 139.586 223.327C139.302 223.536 138.96 223.648 138.608 223.648H131.266L130.001 221.036L129.506 223.648H126.738L127.516 214.32Z" fill="#2F2E41"/>
<path d="M106.281 216.244L110.182 216.243L112.038 201.202H106.28L106.281 216.244Z" fill="#FFB6B6"/>
<path d="M104.959 214.32L111.126 213.952V216.593L116.989 220.641C117.279 220.841 117.497 221.128 117.611 221.461C117.726 221.793 117.732 222.154 117.627 222.49C117.522 222.825 117.313 223.119 117.029 223.327C116.746 223.536 116.403 223.648 116.051 223.648H108.709L107.444 221.036L106.95 223.648H104.182L104.959 214.32Z" fill="#2F2E41"/>
<path d="M125.364 64.7449L117.282 64.9033L111.578 70.9226L107.004 71.5932C104.935 71.8965 103.033 72.9004 101.616 74.4372C100.199 75.974 99.3523 77.9506 99.2178 80.0364L100.01 84.3869H104.764L107.514 100.528C106.445 103.252 106.372 105.402 108.567 106.247L115.381 119.077L135.505 110.048C136.525 108.294 136.852 106.533 135.809 104.819L137.248 80.11H142.085C142.085 75.4886 140.522 71.5925 135.927 71.0783C134.103 70.8809 132.269 70.7761 130.434 70.7642L125.364 64.7449Z" fill="#E6E6E6"/>
<path d="M135.505 110.048C135.505 110.048 115.856 113.533 108.567 106.247C108.567 106.247 107.827 107.502 106.711 109.585C106.391 110.184 105.771 110.59 105.397 111.315C105.057 111.975 104.183 112.786 103.813 113.533C103.515 114.135 103.993 114.921 103.683 115.571C99.95 123.398 95.5887 134.439 96.5237 141.729C97.1267 146.43 98.372 157.37 99.6836 169.12C99.7861 170.038 98.9561 171.217 99.0591 172.142C99.1562 173.015 100.186 173.633 100.283 174.508C100.348 175.089 99.6286 175.681 99.6929 176.261C99.7635 176.897 100.618 177.521 100.688 178.155C102.485 194.379 104.13 209.526 104.13 209.526H113.32L115.054 174.932L113.637 162.321L116.965 136.818L121.56 161.054L122.151 174.694L127.008 210.159H135.505V175.827L136.138 174.043L135.505 171.756L136.138 169.291L135.505 166.607V110.048Z" fill="#2F2E41"/>
<path d="M127.843 60.0601C126.591 61.7224 124.81 62.909 122.794 63.4245C120.777 63.9399 118.645 63.7534 116.749 62.8958C114.852 62.0381 113.305 60.5604 112.361 58.706C111.417 56.8516 111.132 54.7311 111.555 52.6936C111.978 50.6562 113.082 48.8234 114.685 47.4971C116.289 46.1707 118.297 45.4299 120.378 45.3966C122.459 45.3633 124.49 46.0395 126.135 47.3139C127.781 48.5883 128.943 50.3848 129.43 52.4077C129.457 52.5174 129.479 52.6266 129.5 52.7399C129.758 54.0078 129.743 55.3159 129.458 56.5778C129.172 57.8396 128.622 59.0266 127.843 60.0601Z" fill="#FFB6B6"/>
<path d="M125.933 54.8352C125.739 53.8602 125.247 52.9693 124.526 52.2849C124.597 53.2192 124.468 54.1579 124.146 55.0379C121.737 55.2512 119.317 54.772 117.171 53.6567C115.554 52.5605 113.497 52.6556 111.102 53.6567C111.101 52.4917 111.331 51.3382 111.777 50.2619C112.223 49.1856 112.876 48.2076 113.7 47.3839C114.524 46.5602 115.503 45.9068 116.579 45.461C117.656 45.0153 118.81 44.7859 119.975 44.7861H121.56C123.913 44.7865 126.17 45.7212 127.834 47.3847C129.498 49.0482 130.433 51.3042 130.434 53.6567C128.971 54.181 127.465 54.5754 125.933 54.8352Z" fill="#2F2E41"/>
<path d="M56.6091 167.894C70.6884 167.894 82.102 156.485 82.102 142.41C82.102 128.336 70.6884 116.926 56.6091 116.926C42.5298 116.926 31.1162 128.336 31.1162 142.41C31.1162 156.485 42.5298 167.894 56.6091 167.894Z" fill="#333333"/>
<path d="M219.063 50.9679C233.143 50.9679 244.556 39.5583 244.556 25.4839C244.556 11.4096 233.143 0 219.063 0C204.984 0 193.57 11.4096 193.57 25.4839C193.57 39.5583 204.984 50.9679 219.063 50.9679Z" fill="#333333"/>
<path d="M421.508 171.892C435.587 171.892 447 160.482 447 146.408C447 132.333 435.587 120.924 421.508 120.924C407.428 120.924 396.015 132.333 396.015 146.408C396.015 160.482 407.428 171.892 421.508 171.892Z" fill="#333333"/>
<path d="M265.051 28.2631V86.0497C265.051 87.25 264.577 88.4019 263.733 89.2551C262.888 90.1083 261.741 90.594 260.54 90.6065C260.524 90.6082 260.507 90.6089 260.49 90.6086H253.762C248.379 90.6086 243.216 88.4708 239.41 84.6656C235.603 80.8604 233.465 75.6994 233.465 70.3181V28.2631C233.465 27.054 233.945 25.8944 234.801 25.0395C235.656 24.1846 236.816 23.7043 238.025 23.7043H240.751C239.488 27.3873 256.63 28.9378 257.571 23.7043H260.49C261.7 23.7043 262.86 24.1846 263.715 25.0395C264.57 25.8945 265.051 27.054 265.051 28.2631Z" fill="#FE950B"/>
<path d="M245.085 19.3832C245.085 19.2248 245.148 19.0729 245.26 18.9609C245.372 18.8489 245.524 18.7859 245.683 18.7857H249.747C249.905 18.7862 250.056 18.8493 250.168 18.9613C250.28 19.0733 250.343 19.225 250.343 19.3832C250.343 19.5413 250.28 19.693 250.168 19.805C250.056 19.917 249.905 19.9802 249.747 19.9806H245.683C245.524 19.9804 245.372 19.9174 245.26 19.8054C245.148 19.6934 245.085 19.5416 245.085 19.3832Z" fill="#3F3D56"/>
<path d="M261.887 97.9383H236.186C234.192 97.9361 232.28 97.1433 230.87 95.7338C229.46 94.3244 228.667 92.4134 228.665 90.4201V50.0249C228.524 49.9236 228.409 49.7901 228.33 49.6355C228.25 49.4809 228.209 49.3097 228.209 49.136V45.0734C228.209 44.8998 228.25 44.7286 228.33 44.574C228.409 44.4195 228.524 44.2861 228.665 44.1848V43.0944C228.524 42.9932 228.409 42.8597 228.33 42.7052C228.25 42.5507 228.209 42.3795 228.209 42.2058V38.143C228.209 37.9693 228.25 37.7981 228.33 37.6436C228.409 37.4891 228.524 37.3556 228.665 37.2544V35.2837C228.491 35.1901 228.345 35.051 228.244 34.8812C228.143 34.7113 228.089 34.5172 228.09 34.3194V30.2568C228.089 30.0591 228.142 29.8649 228.244 29.695C228.345 29.5251 228.491 29.3859 228.665 29.2923V23.8924C228.667 21.8991 229.46 19.9882 230.87 18.5787C232.28 17.1693 234.192 16.3765 236.186 16.3742H261.887C263.881 16.3765 265.792 17.1693 267.202 18.5787C268.612 19.9882 269.405 21.8992 269.408 23.8924V35.6631C269.543 35.7478 269.655 35.8655 269.732 36.0052C269.81 36.1449 269.85 36.3019 269.85 36.4616V44.2082C269.85 44.368 269.81 44.5251 269.732 44.6648C269.655 44.8045 269.543 44.9223 269.408 45.007V90.4201C269.405 92.4134 268.612 94.3243 267.202 95.7338C265.792 97.1432 263.881 97.9361 261.887 97.9383ZM236.186 17.3736C234.457 17.3755 232.799 18.063 231.577 19.2851C230.354 20.5071 229.667 22.1641 229.665 23.8924V30.1424L229.184 30.161C229.159 30.1618 229.135 30.1723 229.118 30.1901C229.1 30.208 229.09 30.2318 229.09 30.2568V34.3194C229.09 34.3444 229.1 34.3682 229.118 34.3861C229.135 34.4039 229.159 34.4144 229.184 34.4153L229.665 34.4336V37.956L229.284 38.0497C229.263 38.0548 229.244 38.0667 229.231 38.0836C229.217 38.1004 229.21 38.1213 229.209 38.143V42.2058C229.21 42.2275 229.217 42.2484 229.231 42.2652C229.244 42.2821 229.263 42.294 229.284 42.299L229.665 42.3927V44.8865L229.284 44.9802C229.263 44.9853 229.244 44.9972 229.231 45.014C229.217 45.0309 229.21 45.0518 229.209 45.0734V49.136C229.21 49.1577 229.217 49.1786 229.231 49.1955C229.244 49.2124 229.263 49.2244 229.284 49.2295L229.665 49.3232V90.4201C229.667 92.1484 230.354 93.8054 231.577 95.0275C232.799 96.2496 234.457 96.937 236.186 96.9389H261.887C263.616 96.9369 265.273 96.2495 266.496 95.0274C267.718 93.8053 268.406 92.1484 268.408 90.4201V44.1514H268.851V36.5188H268.408V23.8924C268.406 22.1641 267.718 20.5072 266.496 19.2851C265.273 18.063 263.616 17.3756 261.887 17.3736L236.186 17.3736Z" fill="#3F3D56"/>
<path d="M252.018 19.9806C252.348 19.9806 252.615 19.7131 252.615 19.3832C252.615 19.0532 252.348 18.7857 252.018 18.7857C251.688 18.7857 251.42 19.0532 251.42 19.3832C251.42 19.7131 251.688 19.9806 252.018 19.9806Z" fill="#3F3D56"/>
<path d="M122.006 135.116H55.1308C54.1811 135.114 53.271 134.736 52.5995 134.064C51.9279 133.393 51.5494 132.483 51.5469 131.534V98.9601C51.5493 98.0107 51.9276 97.101 52.5991 96.4296C53.2706 95.7583 54.1807 95.38 55.1303 95.3774H122.005C122.955 95.3798 123.865 95.758 124.537 96.4293C125.208 97.1005 125.587 98.0103 125.589 98.9596V131.534C125.587 132.483 125.208 133.393 124.537 134.064C123.866 134.735 122.955 135.114 122.006 135.116Z" fill="white"/>
<path d="M122.006 135.116H55.1308C54.1811 135.114 53.271 134.736 52.5995 134.064C51.9279 133.393 51.5494 132.483 51.5469 131.534V98.9601C51.5493 98.0107 51.9276 97.101 52.5991 96.4296C53.2706 95.7583 54.1807 95.38 55.1303 95.3774H122.005C122.955 95.3798 123.865 95.758 124.537 96.4293C125.208 97.1005 125.587 98.0103 125.589 98.9596V131.534C125.587 132.483 125.208 133.393 124.537 134.064C123.866 134.735 122.955 135.114 122.006 135.116ZM55.1308 96.3768C54.446 96.3788 53.7898 96.6517 53.3056 97.1358C52.8213 97.62 52.5485 98.276 52.5466 98.9606V131.534C52.5486 132.218 52.8215 132.874 53.3059 133.358C53.7902 133.842 54.4465 134.115 55.1313 134.117H122.005C122.69 134.115 123.346 133.842 123.83 133.358C124.315 132.874 124.588 132.218 124.59 131.533V98.9601C124.587 98.2755 124.315 97.6195 123.83 97.1355C123.346 96.6514 122.69 96.3787 122.005 96.3768L55.1308 96.3768Z" fill="#3F3D56"/>
<path d="M92.1532 130.302C78.964 130.302 65.2113 130.176 60.08 130.095C59.4048 130.081 58.7619 129.804 58.2885 129.322C57.815 128.841 57.5485 128.194 57.5459 127.519V100.555C57.5462 100.313 57.6422 100.081 57.8129 99.9103C57.9837 99.7391 58.2153 99.6426 58.4571 99.6417H118.678C118.92 99.642 119.152 99.738 119.323 99.9086C119.494 100.079 119.591 100.311 119.592 100.552V118.847C119.58 121.833 118.399 124.696 116.3 126.822C114.202 128.947 111.353 130.166 108.366 130.216C103.584 130.278 97.921 130.302 92.1532 130.302Z" fill="#FE950B"/>
<path d="M115.103 117.166H60.6888C60.2332 117.165 59.789 117.023 59.4166 116.761C59.0442 116.499 58.7617 116.128 58.6074 115.699L52.4485 98.427C52.3298 98.0939 52.2928 97.7371 52.3406 97.3868C52.3884 97.0364 52.5196 96.7026 52.7233 96.4134C52.9269 96.1243 53.1969 95.8882 53.5108 95.7249C53.8246 95.5617 54.173 95.4762 54.5267 95.4755L122.544 95.3808C122.867 95.3805 123.187 95.4511 123.48 95.5875C123.773 95.724 124.032 95.9231 124.24 96.1707C124.448 96.4184 124.599 96.7086 124.682 97.0208C124.766 97.3331 124.78 97.6599 124.723 97.9781L124.775 98.0003L124.58 98.4558L124.578 98.4604L117.133 115.827C116.963 116.225 116.68 116.564 116.32 116.802C115.959 117.04 115.536 117.167 115.103 117.166ZM122.547 96.3802L54.5287 96.4749C54.3349 96.4752 54.144 96.522 53.9721 96.6114C53.8002 96.7008 53.6522 96.8301 53.5407 96.9885C53.4291 97.1469 53.3572 97.3298 53.331 97.5217C53.3048 97.7136 53.3251 97.909 53.3901 98.0915L59.5488 115.363C59.6334 115.598 59.7883 115.801 59.9924 115.945C60.1965 116.089 60.4399 116.166 60.6896 116.167H115.103C115.34 116.167 115.571 116.098 115.769 115.967C115.966 115.837 116.121 115.651 116.214 115.434L123.66 98.0667C123.738 97.8826 123.77 97.6819 123.753 97.4825C123.735 97.283 123.668 97.0911 123.558 96.924C123.447 96.7569 123.297 96.6197 123.121 96.5248C122.945 96.4299 122.747 96.3802 122.547 96.3802Z" fill="#3F3D56"/>
<path d="M88.4669 120.926C90.8201 120.926 92.7277 119.019 92.7277 116.667C92.7277 114.314 90.8201 112.407 88.4669 112.407C86.1137 112.407 84.2061 114.314 84.2061 116.667C84.2061 119.019 86.1137 120.926 88.4669 120.926Z" fill="white"/>
<path d="M249.422 83.9492C251.775 83.9492 253.683 82.0423 253.683 79.6899C253.683 77.3375 251.775 75.4306 249.422 75.4306C247.069 75.4306 245.161 77.3375 245.161 79.6899C245.161 82.0423 247.069 83.9492 249.422 83.9492Z" fill="white"/>
<path d="M410.576 141.471L399.194 130.238C398.64 129.687 397.982 129.25 397.259 128.954C396.536 128.657 395.762 128.506 394.98 128.509H394.94C394.152 128.511 393.373 128.67 392.647 128.975C391.921 129.28 391.263 129.727 390.711 130.288C388.166 132.863 386.719 136.323 386.673 139.942C386.627 143.562 387.987 147.058 390.466 149.696C390.586 149.826 390.711 149.951 390.836 150.075C391.528 150.763 392.292 151.375 393.115 151.899C395.366 153.353 397.989 154.122 400.668 154.113H400.753C402.592 154.107 404.411 153.736 406.106 153.022C407.8 152.309 409.337 151.266 410.626 149.956C411.742 148.823 412.364 147.293 412.355 145.703C412.346 144.112 411.706 142.59 410.576 141.471ZM409.916 149.251C407.803 151.379 405.02 152.714 402.037 153.031C399.054 153.347 396.054 152.627 393.54 150.99C392.821 150.514 392.15 149.97 391.536 149.366C389.083 146.945 387.693 143.649 387.672 140.203C387.65 136.757 388.999 133.444 391.421 130.993C391.881 130.524 392.43 130.151 393.036 129.896C393.642 129.641 394.293 129.509 394.95 129.508H394.98C395.631 129.506 396.276 129.632 396.878 129.879C397.48 130.126 398.027 130.489 398.489 130.948L409.871 142.185C410.813 143.117 411.347 144.384 411.355 145.709C411.364 147.034 410.846 148.308 409.916 149.251Z" fill="#3F3D56"/>
<path d="M373.231 104.604L361.849 93.3662C360.728 92.255 359.213 91.6333 357.635 91.6373H357.6C356.811 91.6404 356.031 91.7997 355.305 92.1059C354.578 92.412 353.919 92.8591 353.366 93.4211C351.262 95.5571 349.898 98.3106 349.473 101.278C349.049 104.245 349.586 107.271 351.007 109.911L351.012 109.916C351.598 110.995 352.326 111.992 353.176 112.879C353.271 112.989 353.381 113.099 353.491 113.209C356.105 115.802 359.641 117.254 363.323 117.246H363.413C365.252 117.238 367.072 116.867 368.766 116.152C370.46 115.438 371.997 114.395 373.286 113.084C373.839 112.523 374.277 111.86 374.573 111.13C374.87 110.401 375.02 109.62 375.015 108.832C375.01 108.045 374.85 107.266 374.544 106.541C374.237 105.815 373.791 105.157 373.231 104.604ZM372.571 112.384C371.374 113.601 369.949 114.569 368.376 115.232C366.803 115.895 365.115 116.24 363.408 116.247H363.323C360.76 116.246 358.255 115.487 356.122 114.066C353.989 112.646 352.324 110.626 351.336 108.262C350.348 105.898 350.081 103.294 350.57 100.779C351.058 98.2635 352.28 95.9488 354.081 94.1257C355.013 93.1839 356.28 92.6502 357.606 92.6417C358.931 92.6333 360.205 93.1508 361.149 94.0807L372.531 105.314C373.472 106.247 374.005 107.515 374.013 108.841C374.02 110.166 373.502 111.44 372.571 112.384Z" fill="#3F3D56"/>
<path d="M411.303 145.002L398.755 132.613C397.932 131.803 396.821 131.352 395.666 131.359C394.51 131.366 393.405 131.831 392.593 132.652C391.576 133.678 390.772 134.895 390.226 136.233C389.68 137.571 389.403 139.003 389.411 140.447C389.419 141.892 389.712 143.321 390.273 144.652C390.834 145.984 391.652 147.191 392.68 148.207C393.709 149.222 394.927 150.024 396.266 150.569C397.604 151.113 399.037 151.388 400.482 151.378C401.928 151.368 403.357 151.074 404.688 150.512C406.019 149.949 407.226 149.13 408.241 148.101L411.303 145.002Z" fill="#FE950B"/>
<path d="M373.96 108.134L361.412 95.7447C360.589 94.9341 359.478 94.4829 358.323 94.4901C357.168 94.4972 356.062 94.9622 355.25 95.7829C354.233 96.8096 353.429 98.0266 352.883 99.3642C352.337 100.702 352.06 102.134 352.069 103.579C352.077 105.023 352.37 106.452 352.931 107.783C353.492 109.115 354.309 110.323 355.338 111.338C356.366 112.353 357.584 113.156 358.923 113.7C360.262 114.244 361.695 114.519 363.14 114.509C364.585 114.5 366.014 114.205 367.345 113.643C368.676 113.081 369.884 112.262 370.898 111.233L373.96 108.134Z" fill="#FE950B"/>
<path d="M397.513 152.719L397.214 153.508C395.804 152.974 394.438 152.437 393.115 151.899C369.681 142.34 358.494 131.152 351.011 109.916L351.006 109.911C350.651 108.911 350.307 107.889 349.972 106.843L350.761 106.588C351.026 107.594 351.412 108.564 351.911 109.476C352.321 110.64 352.743 111.775 353.176 112.879C360.209 130.803 370.581 141.046 390.465 149.696C391.465 150.13 392.49 150.562 393.54 150.99C394.758 151.784 396.102 152.368 397.513 152.719Z" fill="#3F3D56"/>
<path d="M361.64 116.337L360.938 117.048L386.899 142.681L387.602 141.969L361.64 116.337Z" fill="#3F3D56"/>
<path d="M141.843 95.0974L141.856 78.6764L132.2 79.539L135.608 89.8957L123.238 108.641C122.464 108.814 121.758 109.209 121.205 109.777C120.652 110.345 120.276 111.061 120.123 111.839C119.971 112.617 120.048 113.422 120.345 114.157C120.642 114.891 121.147 115.524 121.797 115.977C122.448 116.43 123.216 116.684 124.008 116.708C124.801 116.732 125.583 116.525 126.26 116.112C126.937 115.699 127.479 115.098 127.82 114.383C128.161 113.668 128.286 112.869 128.181 112.083L141.843 95.0974Z" fill="#FFB6B6"/>
</g>
<defs>
<clipPath id="clip0_185_96">
<rect width="447" height="224" fill="white"/>
</clipPath>
</defs>
</svg>
